<svg width="129" height="129" viewBox="0 0 129 129" fill="none" xmlns="http://www.w3.org/2000/svg">
<rect y="0.344238" width="128.18" height="128.18" fill="#452613"/>
<g filter="url(#filter0_i_96_49)">
<g clip-path="url(#clip0_96_49)">
<path d="M51.4561 53.064C51.1273 53.4586 50.902 53.9289 50.8004 54.4324C50.6988 54.9359 50.7241 55.4568 50.8742 55.948L50.8668 55.9259C51.051 56.9536 51.8281 57.7602 52.8226 57.9849L52.8411 57.9886C54.9001 58.2023 56.9718 58.2675 59.0401 58.1838L58.9591 58.1875H63.8947C64.4141 58.1028 64.8782 57.9628 65.3165 57.7786L65.276 57.7934C65.6981 57.4986 66.0428 57.1062 66.2807 56.6496C66.5186 56.193 66.6427 55.6857 66.6425 55.1708L66.6388 55.0161V55.0235L66.6425 54.8946C66.6425 54.3818 66.4949 53.88 66.2173 53.4489C65.9397 53.0178 65.5439 52.6757 65.0771 52.4636L65.0587 52.4562C64.6649 52.1976 64.2038 52.0606 63.7327 52.0621H58.7565C55.7312 52.0621 53.8896 52.094 53.2315 52.1579C52.5563 52.2348 51.9301 52.5479 51.4635 53.0419L51.4561 53.064ZM63.6958 71.5985C58.4311 71.5985 55.2401 71.6648 54.1229 71.7974C53.312 71.8244 52.5227 72.0659 51.8355 72.4972L51.8539 72.4862C51.458 72.8235 51.156 73.2574 50.9773 73.7459L50.9699 73.768C50.7786 74.2391 50.7114 74.7515 50.7747 75.256V75.2413C50.8631 75.768 51.0694 76.2358 51.3714 76.6299L51.364 76.6226C51.6774 77.0684 52.1176 77.4098 52.6274 77.6023L52.6458 77.6097C56.3721 77.9432 60.1158 78.0392 63.8542 77.897L63.6958 77.9007L73.1694 77.7018L74.9374 77.5029C75.3719 77.27 75.7429 76.9345 76.0183 76.5256C76.2937 76.1167 76.4651 75.6468 76.5175 75.1566V75.1419C76.5987 74.6656 76.5502 74.1763 76.3771 73.7253C76.2041 73.2742 75.9129 72.878 75.5341 72.5783L75.5304 72.5746C74.8563 72.131 74.0684 71.8918 73.2615 71.8858H73.2578C72.2756 71.8219 69.0846 71.79 63.6848 71.79L63.6958 71.5985ZM107.708 97.4592C107.841 96.2731 107.907 85.023 107.907 63.7088V38.0654C107.774 34.5122 107.643 32.1439 107.513 30.9603C107.389 30.182 107.115 29.4353 106.706 28.7613L106.721 28.7871L106.522 27.9989C105.608 26.1731 104.285 24.583 102.656 23.3525C101.027 22.122 99.1355 21.2844 97.1295 20.9048L97.0484 20.8937C96.2627 20.7611 85.0457 20.6948 63.3975 20.6948C41.7493 20.6948 30.5986 20.7611 29.9455 20.8937C27.5349 21.4995 25.3228 22.7204 23.5254 24.4371L23.5291 24.4334C21.7642 26.1331 20.5057 28.2893 19.8936 30.6619L19.8752 30.754C19.4968 32.5871 19.3655 34.4626 19.4848 36.3306L19.4811 36.2716V93.7132C19.5216 95.7096 19.6653 97.6249 19.9047 99.5071L19.8752 99.2382C20.273 100.848 20.9176 102.259 21.7795 103.515L21.75 103.47C22.6598 104.763 23.7759 105.842 25.0577 106.686L25.1056 106.715C26.3763 107.581 27.8607 108.259 29.4482 108.668L29.5477 108.69C31.2273 108.9 33.2126 109.04 35.2237 109.073H92.1164C94.1128 109.032 96.0281 108.889 97.9103 108.649L97.6414 108.679C100.299 108.082 102.709 106.68 104.54 104.664L104.551 104.653C106.359 102.685 107.467 100.176 107.704 97.5144L107.708 97.4665V97.4592ZM90.9341 60.7437C91.0667 61.5295 91.0986 64.5891 91.0299 69.9226C91.1106 73.1593 90.9345 76.3972 90.5032 79.6061L90.5363 79.2967C89.8101 82.2077 88.3095 84.8678 86.1936 86.9948C83.6235 89.7829 80.1662 91.5935 76.4107 92.1183L76.326 92.1294C75.1473 92.262 70.6733 92.2939 62.9039 92.2252C55.1346 92.1564 50.7919 92.0582 49.876 91.9305C46.9652 91.3324 44.2684 89.9637 42.0673 87.9672L42.082 87.9783C39.7642 86.0239 38.0339 83.4649 37.0838 80.5858L37.0506 80.4716C36.6063 79.002 36.3744 77.4764 36.3618 75.9411V75.9301C36.298 74.0884 36.2661 70.0097 36.2661 63.6941C36.3987 56.0622 36.53 51.8509 36.6602 51.0602C37.3797 48.2981 38.7017 45.7296 40.5314 43.5389L40.5056 43.5683C42.3039 41.4601 44.6079 39.843 47.2019 38.8684L47.3161 38.8316C48.7325 38.1804 50.2522 37.7827 51.806 37.6566L51.8576 37.6529C53.4292 37.5203 56.323 37.454 60.5392 37.454C65.0132 37.5866 67.5793 37.718 68.2374 37.8481C71.4014 38.9163 74.1086 40.6069 76.3334 42.7875L76.3297 42.7838C77.855 44.2364 79.0767 45.9775 79.924 47.906C80.7712 49.8344 81.2272 51.9119 81.2654 54.0179V54.0327C81.2206 54.8161 81.3243 55.6009 81.5711 56.3458L81.56 56.3016C81.7901 56.7918 82.1639 57.2004 82.6319 57.4729L82.6429 57.4803C83.047 57.7677 83.5222 57.9384 84.0168 57.9738H84.0242L86.3815 58.1727C87.4386 58.1985 88.4515 58.3422 89.4239 58.589L89.3318 58.5669C89.7429 58.783 90.1001 59.0889 90.3768 59.4619C90.6536 59.835 90.8428 60.2655 90.9304 60.7216L90.9341 60.74V60.7437Z" fill="white"/>
</g>
</g>
<defs>
<filter id="filter0_i_96_49" x="19.448" y="20.6763" width="92.3999" height="92.3999" filterUnits="userSpaceOnUse" color-interpolation-filters="sRGB">
<feFlood flood-opacity="0" result="BackgroundImageFix"/>
<feBlend mode="normal" in="SourceGraphic" in2="BackgroundImageFix" result="shape"/>
<feColorMatrix in="SourceAlpha" type="matrix" values="0 0 0 0 0 0 0 0 0 0 0 0 0 0 0 0 0 0 127 0" result="hardAlpha"/>
<feOffset dx="5" dy="10"/>
<feGaussianBlur stdDeviation="2"/>
<feComposite in2="hardAlpha" operator="arithmetic" k2="-1" k3="1"/>
<feColorMatrix type="matrix" values="0 0 0 0 0 0 0 0 0 0 0 0 0 0 0 0 0 0 0.25 0"/>
<feBlend mode="normal" in2="shape" result="effect1_innerShadow_96_49"/>
</filter>
<clipPath id="clip0_96_49">
<rect width="88.4" height="88.4" fill="white" transform="translate(19.448 20.6763)"/>
</clipPath>
</defs>
</svg>
