<svg width="264" height="61" viewBox="0 0 264 61" fill="none" xmlns="http://www.w3.org/2000/svg">
<g filter="url(#filter0_d_132_2)">
<path d="M149.154 13.1537L147.647 12.7252L148.182 10.9157C148.328 10.3443 147.987 9.91569 147.404 9.6776L126.072 1.91587L120.872 0.0587649C120.338 -0.131707 119.706 0.154001 119.56 0.725417L118.637 4.15391L116.11 3.39203C115.575 3.24917 114.944 3.48726 114.749 4.01106L113 7.86812L149.251 18.5822L149.98 14.4394C150.077 13.868 149.737 13.2966 149.154 13.1537Z" fill="#FAD000"/>
<path d="M131.757 28.5819L125.148 13.487L114.652 10.3918L118.102 36.296L124.468 36.5817L123.836 25.6296L128.55 36.5817H134.964L139.629 25.7725L138.852 36.5817L145.023 36.2484L147.404 20.0583L136.859 16.9631L131.757 28.5819Z" fill="#FAD000"/>
<path d="M125.148 48.2958C126.509 48.5339 127.529 48.5339 127.529 48.5339L127.578 50.9148C126.363 50.8196 124.614 50.4862 123.934 50.3434C123.253 50.1529 123.156 49.4863 123.156 49.4863L122.573 42.534C122.573 42.534 122.524 42.1055 123.399 42.2007C126.655 42.6293 131.223 42.534 131.223 42.534V38.3913C128.744 38.3436 120.483 37.7722 120.483 37.7722C117.908 37.6294 118.2 39.6293 118.2 39.6293C118.2 39.6293 119.317 47.9149 119.657 50.2005C119.997 52.4862 120.824 53.2957 121.601 54.1052C122.427 54.9147 125.148 55.8671 126.995 56.1528C128.842 56.4385 131.417 56.3909 131.417 56.3909V44.9625C127.724 44.9625 124.954 44.6292 124.954 44.6292L125.148 48.2958Z" fill="#FAD000"/>
<path d="M132.486 41.3436C132.486 43.3912 132.389 52.3433 132.389 52.3433C132.389 52.3433 132.049 56.248 135.013 56.0575C137.977 55.9147 140.65 54.7719 142.691 53.2481L143.177 48.5815C143.177 48.5815 140.893 50.0577 138.414 50.4862C138.414 50.4862 137.734 50.6291 137.443 50.6291C137.151 50.6291 136.957 50.4862 136.957 50.0101C136.957 49.5339 137.345 42.915 137.345 42.915C137.345 42.915 137.394 42.3436 138.171 42.2483C138.949 42.1531 142.836 41.7245 144.1 41.2007L144.634 37.7246C144.634 37.7246 137.297 38.2484 135.547 38.296C133.798 38.3436 132.486 39.296 132.486 41.3436Z" fill="#FAD000"/>
</g>
<path d="M21.4826 9.21686L15.2117 28.1995L8.94074 9.21686H0.0620884H0L0.0620884 9.33854V46.087H8.56821V35.0138L12.2314 46.087H18.254L21.9172 35.0138V46.087H30.4233V9.33854V9.21686H21.4826Z" fill="white"/>
<path d="M54.4515 46.087V38.9685H43.9586V31.1808H52.9614V24.1231H43.9586V16.3354H54.4515V9.21686H35.4525V46.087H54.4515Z" fill="white"/>
<path d="M246.615 46.087V38.9685H238.482V31.1808H245.436V24.1231H238.482V16.3354H246.615V9.21686H231.9V46.087H246.615Z" fill="white"/>
<path d="M206.258 46.087V31.1808H213.212V24.1231H206.258V16.3354H214.391V9.21686H199.676V46.087H206.258Z" fill="white"/>
<path d="M222.401 46.087V31.1808H229.355V24.1231H222.401V16.3354H230.472V9.21686H215.819V46.087H222.401Z" fill="white"/>
<path d="M264 46.087V38.9685H255.929V31.1808H262.882V24.1231H255.929V16.3354H264V9.21686H249.285V46.087H264Z" fill="white"/>
<path d="M70.1599 21.9936H78.6039V15.8486C78.6039 11.5288 76.4929 8 68.4214 8C60.3499 8 58.301 11.5288 58.301 15.8486V39.3944C58.301 43.7141 60.412 47.243 68.4835 47.243C76.555 47.243 78.666 43.775 78.666 39.3944V24.1231H67.8005V31.1807H70.1599V38.4818C70.1599 39.3335 69.539 40.1245 68.6077 40.1853C67.6143 40.2462 66.8071 39.5161 66.8071 38.5426V16.8221C66.8071 15.9703 67.428 15.1793 68.3593 15.1185C69.3528 15.0577 70.1599 15.7878 70.1599 16.7612V21.9936Z" fill="white"/>
<path d="M170.433 32.6409V37.9342C170.433 38.786 169.936 39.5769 169.191 39.6378C168.384 39.6986 167.763 38.9685 167.763 38.0559V16.7004C167.763 15.8486 168.26 15.0577 169.005 14.9968C169.812 14.936 170.433 15.6661 170.433 16.5787V22.0545H177.2V15.7269C177.2 11.468 175.524 8 169.067 8C162.61 8 160.933 11.468 160.933 15.7269V38.9077C160.933 43.1666 162.61 46.6346 169.067 46.6346C175.524 46.6346 177.262 43.1666 177.262 38.9077V32.6409H170.433Z" fill="white"/>
<path d="M196.013 15.7269C196.013 11.468 194.337 8 187.88 8C181.484 8 179.746 11.468 179.746 15.7269V38.9077C179.746 43.1666 181.422 46.6346 187.88 46.6346C194.275 46.6346 196.013 43.2274 196.013 38.9077V15.7269ZM189.246 37.995C189.246 38.8468 188.749 39.6378 188.004 39.6986C187.197 39.7594 186.576 39.0293 186.576 38.1167V16.7004C186.576 15.8486 187.072 15.0577 187.817 14.9968C188.625 14.936 189.246 15.6661 189.246 16.5787V37.995Z" fill="white"/>
<path d="M87.731 9.21686L80.9634 46.0262H89.4695L90.4629 38.8468H96.1129L97.1063 46.0262H105.55L98.7827 9.21686H87.731ZM91.3321 32.5193L93.319 18.0998L95.3058 32.5193H91.3321Z" fill="white"/>
<path d="M21.4826 50.2851C22.1035 50.1634 23.159 50.1025 24.2145 50.1025C25.4563 50.1025 26.3255 50.2242 27.0706 50.711C27.7535 51.1369 28.1261 51.7453 28.1261 52.6579C28.1261 53.5705 27.6294 54.3615 26.5118 54.7874V54.8482C27.6914 55.1524 28.4986 56.065 28.4986 57.2819C28.4986 58.1945 28.1261 58.8638 27.5052 59.3505C26.8222 59.9589 25.6425 60.2631 23.7178 60.2631C22.7244 60.2631 21.9172 60.2023 21.4205 60.1414V50.2851H21.4826ZM23.6557 54.1181H24.2766C25.3321 54.1181 25.953 53.5705 25.953 52.8404C25.953 52.1103 25.4563 51.6236 24.4629 51.6236C24.0282 51.6236 23.7799 51.6236 23.5936 51.6844V54.1181H23.6557ZM23.6557 58.4987C23.842 58.5596 24.0903 58.5596 24.4008 58.5596C25.3942 58.5596 26.2013 58.1337 26.2013 57.0994C26.2013 56.1259 25.3321 55.6391 24.3387 55.6391H23.6557V58.4987Z" fill="white"/>
<path d="M37.0669 50.1025V60.0198H34.8938V50.1025H37.0669Z" fill="white"/>
<path d="M51.4092 59.6547C50.7884 59.8981 49.5466 60.1414 48.429 60.1414C46.7526 60.1414 45.5729 59.7155 44.7037 58.9246C43.7723 58.0728 43.2756 56.7343 43.2756 55.1524C43.2756 51.7452 45.635 49.9808 48.6153 49.9808C49.7949 49.9808 50.6642 50.2242 51.0988 50.4067L50.6642 52.1711C50.1675 51.9278 49.6087 51.8061 48.6773 51.8061C46.9389 51.8061 45.5729 52.8404 45.5729 55.0916C45.5729 57.2819 46.7526 58.377 48.3669 58.377C48.8015 58.377 49.112 58.3162 49.2982 58.2553V56.065H47.9323V54.3615H51.4092V59.6547V59.6547Z" fill="white"/>
<path d="M65.5654 57.8295C66.1242 58.1337 66.9934 58.377 67.8627 58.377C68.8561 58.377 69.4149 57.9511 69.4149 57.2819C69.4149 56.6126 68.9182 56.3084 67.8627 55.8217C66.2484 55.1524 65.317 54.1789 65.317 52.9013C65.317 51.2585 66.683 49.92 68.9802 49.92C69.9736 49.92 70.7808 50.1025 71.2775 50.4068L70.8429 52.1712C70.4704 51.9886 69.8495 51.7453 68.9802 51.7453C68.0489 51.7453 67.5522 52.232 67.5522 52.7187C67.5522 53.3272 68.0489 53.6314 69.2907 54.1789C70.9671 54.8482 71.65 55.8217 71.65 57.0994C71.65 58.8029 70.3462 60.1415 67.8006 60.1415C66.7451 60.1415 65.6896 59.8372 65.1929 59.5939L65.5654 57.8295Z" fill="white"/>
<path d="M80.032 50.1025V60.0198H77.8589V50.1025H80.032Z" fill="white"/>
<path d="M86.303 58.8638L90.6492 51.9886V51.9278H86.6755V50.1025H93.3811V51.4411L89.1591 58.1945V58.2553H93.4432V60.0806H86.303V58.8638Z" fill="white"/>
<path d="M105.178 55.8217H101.887V58.3162H105.612V60.0806H99.714V50.1634H105.426V51.9278H101.949V54.0572H105.24V55.8217H105.178Z" fill="white"/>
<path d="M162.672 60.0806V58.7421L163.851 57.5861C165.714 55.7608 166.769 54.6657 166.769 53.4488C166.769 52.6579 166.335 52.0495 165.279 52.0495C164.472 52.0495 163.851 52.4145 163.355 52.7187L162.796 51.1369C163.417 50.6501 164.472 50.2851 165.714 50.2851C167.887 50.2851 168.943 51.6236 168.943 53.2055C168.943 54.8482 167.763 56.1867 166.459 57.4644L165.652 58.1945H169.129V60.0198H162.672V60.0806Z" fill="white"/>
<path d="M184.092 57.8295C184.651 58.1337 185.52 58.377 186.389 58.377C187.383 58.377 187.942 57.9511 187.942 57.2819C187.942 56.6126 187.445 56.3084 186.389 55.8217C184.775 55.1524 183.844 54.1789 183.844 52.9013C183.844 51.2585 185.21 49.92 187.507 49.92C188.5 49.92 189.308 50.1025 189.804 50.4068L189.37 52.1712C188.997 51.9886 188.376 51.7453 187.507 51.7453C186.576 51.7453 186.079 52.232 186.079 52.7187C186.079 53.3272 186.576 53.6314 187.817 54.1789C189.494 54.8482 190.177 55.8217 190.177 57.0994C190.177 58.8029 188.873 60.1415 186.327 60.1415C185.272 60.1415 184.216 59.8372 183.72 59.5939L184.092 57.8295Z" fill="white"/>
<path d="M199.614 50.1025V53.9964H202.905V50.1025H205.078V60.0198H202.905V55.8825H199.614V60.0198H197.441V50.1025H199.614Z" fill="white"/>
<path d="M216.626 60.2023C213.832 60.2023 212.342 57.9511 212.342 55.1524C212.342 52.232 214.019 49.9808 216.813 49.9808C219.731 49.9808 221.159 52.3537 221.159 54.9699C221.097 58.377 219.296 60.2023 216.626 60.2023ZM216.751 58.4379C218.116 58.4379 218.799 56.9777 218.799 55.0307C218.799 53.2663 218.116 51.6844 216.751 51.6844C215.385 51.6844 214.64 53.2055 214.702 55.0307C214.64 56.9777 215.385 58.4379 216.751 58.4379Z" fill="white"/>
<path d="M229.541 51.9886H227.057V50.1025H234.198V51.9886H231.714V60.0806H229.541V51.9886Z" fill="white"/>
<defs>
<filter id="filter0_d_132_2" x="113" y="0" width="38.9962" height="58.3938" filterUnits="userSpaceOnUse" color-interpolation-filters="sRGB">
<feFlood flood-opacity="0" result="BackgroundImageFix"/>
<feColorMatrix in="SourceAlpha" type="matrix" values="0 0 0 0 0 0 0 0 0 0 0 0 0 0 0 0 0 0 127 0" result="hardAlpha"/>
<feOffset dx="2" dy="2"/>
<feComposite in2="hardAlpha" operator="out"/>
<feColorMatrix type="matrix" values="0 0 0 0 0.475 0 0 0 0 0.255696 0 0 0 0 0.0217708 0 0 0 1 0"/>
<feBlend mode="normal" in2="BackgroundImageFix" result="effect1_dropShadow_132_2"/>
<feBlend mode="normal" in="SourceGraphic" in2="effect1_dropShadow_132_2" result="shape"/>
</filter>
</defs>
</svg>
