<svg width="128" height="129" viewBox="0 0 128 129" fill="none" xmlns="http://www.w3.org/2000/svg">
<rect width="128" height="129" fill="#452613"/>
<g filter="url(#filter0_i_235_15)">
<path d="M64.0001 47.7075C54.8251 47.7075 47.3376 55.2535 47.3376 64.5001C47.3376 73.7468 54.8251 81.2928 64.0001 81.2928C73.1751 81.2928 80.6626 73.7468 80.6626 64.5001C80.6626 55.2535 73.1751 47.7075 64.0001 47.7075ZM113.975 64.5001C113.975 57.5462 114.038 50.6553 113.65 43.714C113.263 35.6515 111.438 28.496 105.588 22.6003C99.7251 16.692 92.6376 14.8654 84.6376 14.4748C77.7376 14.0843 70.9001 14.1473 64.0126 14.1473C57.1126 14.1473 50.2751 14.0843 43.3876 14.4748C35.3876 14.8654 28.2876 16.7046 22.4376 22.6003C16.5751 28.5086 14.7626 35.6515 14.3751 43.714C13.9876 50.6679 14.0501 57.5588 14.0501 64.5001C14.0501 71.4414 13.9876 78.345 14.3751 85.2863C14.7626 93.3488 16.5876 100.504 22.4376 106.4C28.3001 112.308 35.3876 114.135 43.3876 114.525C50.2876 114.916 57.1251 114.853 64.0126 114.853C70.9126 114.853 77.7501 114.916 84.6376 114.525C92.6376 114.135 99.7376 112.296 105.588 106.4C111.45 100.492 113.263 93.3488 113.65 85.2863C114.05 78.345 113.975 71.454 113.975 64.5001ZM64.0001 90.3379C49.8126 90.3379 38.3626 78.7985 38.3626 64.5001C38.3626 50.2018 49.8126 38.6623 64.0001 38.6623C78.1876 38.6623 89.6376 50.2018 89.6376 64.5001C89.6376 78.7985 78.1876 90.3379 64.0001 90.3379ZM90.6876 43.6384C87.3751 43.6384 84.7001 40.9425 84.7001 37.6041C84.7001 34.2658 87.3751 31.5699 90.6876 31.5699C94.0001 31.5699 96.6751 34.2658 96.6751 37.6041C96.6761 38.3968 96.5219 39.182 96.2214 39.9145C95.9208 40.6471 95.4798 41.3127 94.9236 41.8732C94.3674 42.4338 93.707 42.8782 92.9801 43.1811C92.2532 43.484 91.4742 43.6394 90.6876 43.6384Z" fill="white"/>
</g>
<defs>
<filter id="filter0_i_235_15" x="14.0464" y="14.1436" width="103.934" height="104.713" filterUnits="userSpaceOnUse" color-interpolation-filters="sRGB">
<feFlood flood-opacity="0" result="BackgroundImageFix"/>
<feBlend mode="normal" in="SourceGraphic" in2="BackgroundImageFix" result="shape"/>
<feColorMatrix in="SourceAlpha" type="matrix" values="0 0 0 0 0 0 0 0 0 0 0 0 0 0 0 0 0 0 127 0" result="hardAlpha"/>
<feOffset dx="5" dy="10"/>
<feGaussianBlur stdDeviation="2"/>
<feComposite in2="hardAlpha" operator="arithmetic" k2="-1" k3="1"/>
<feColorMatrix type="matrix" values="0 0 0 0 0 0 0 0 0 0 0 0 0 0 0 0 0 0 0.25 0"/>
<feBlend mode="normal" in2="shape" result="effect1_innerShadow_235_15"/>
</filter>
</defs>
</svg>
