<svg width="20" height="14" viewBox="0 0 20 14" fill="none" xmlns="http://www.w3.org/2000/svg">
<path d="M18.7206 5.91669H1.27892C0.71053 5.91669 0.249756 6.37746 0.249756 6.94585V7.05419C0.249756 7.62258 0.71053 8.08335 1.27892 8.08335H18.7206C19.289 8.08335 19.7498 7.62258 19.7498 7.05419V6.94585C19.7498 6.37746 19.289 5.91669 18.7206 5.91669Z" fill="#452613"/>
<path d="M18.7206 11.3333H1.27892C0.710529 11.3333 0.249756 11.7941 0.249756 12.3625V12.4708C0.249756 13.0392 0.710529 13.5 1.27892 13.5H18.7206C19.289 13.5 19.7498 13.0392 19.7498 12.4708V12.3625C19.7498 11.7941 19.289 11.3333 18.7206 11.3333Z" fill="#452613"/>
<path d="M18.7206 0.5H1.27892C0.710529 0.5 0.249756 0.960773 0.249756 1.52917V1.6375C0.249756 2.20589 0.710529 2.66667 1.27892 2.66667H18.7206C19.289 2.66667 19.7498 2.20589 19.7498 1.6375V1.52917C19.7498 0.960773 19.289 0.5 18.7206 0.5Z" fill="#452613"/>
</svg>
