<svg width="14" height="21" viewBox="0 0 14 21" fill="none" xmlns="http://www.w3.org/2000/svg">
<path d="M7.20573 9.47502C4.28901 8.83585 3.35103 8.17502 3.35103 7.14585C3.35103 5.96502 4.64878 5.14169 6.82026 5.14169C8.64482 5.14169 9.55711 5.72669 9.89118 6.65835C10.0454 7.09169 10.4694 7.41669 11.009 7.41669H11.3945C12.2426 7.41669 12.8465 6.71252 12.5509 6.04085C12.0113 4.76252 10.7521 3.70085 8.74762 3.28919V2.54169C8.74762 1.64252 7.88673 0.916687 6.82026 0.916687C5.75379 0.916687 4.89291 1.64252 4.89291 2.54169V3.25669C2.4002 3.71169 0.395752 5.07669 0.395752 7.16752C0.395752 9.67002 2.84992 10.9159 6.43479 11.6417C9.64705 12.2917 10.2895 13.245 10.2895 14.2525C10.2895 15 9.6599 16.1917 6.82026 16.1917C4.70017 16.1917 3.60801 15.5525 3.18399 14.6425C2.99125 14.22 2.55439 13.9167 2.02758 13.9167H1.6678C0.80692 13.9167 0.203016 14.6534 0.524242 15.325C1.25664 16.8309 2.96556 17.7192 4.89291 18.0659V18.7917C4.89291 19.6909 5.75379 20.4167 6.82026 20.4167C7.88673 20.4167 8.74762 19.6909 8.74762 18.7917V18.0875C11.2532 17.6867 13.2448 16.4625 13.2448 14.2417C13.2448 11.165 10.1225 10.1142 7.20573 9.47502Z" fill="#452613"/>
</svg>
