<svg width="16" height="22" viewBox="0 0 16 22" fill="none" xmlns="http://www.w3.org/2000/svg">
<path d="M8.00008 0.166687C3.80758 0.166687 0.416748 3.55752 0.416748 7.75002C0.416748 13.4375 8.00008 21.8334 8.00008 21.8334C8.00008 21.8334 15.5834 13.4375 15.5834 7.75002C15.5834 3.55752 12.1926 0.166687 8.00008 0.166687ZM8.00008 10.4584C7.28179 10.4584 6.59291 10.173 6.085 9.6651C5.57709 9.15719 5.29175 8.46832 5.29175 7.75002C5.29175 7.03173 5.57709 6.34285 6.085 5.83494C6.59291 5.32703 7.28179 5.04169 8.00008 5.04169C8.71838 5.04169 9.40725 5.32703 9.91516 5.83494C10.4231 6.34285 10.7084 7.03173 10.7084 7.75002C10.7084 8.46832 10.4231 9.15719 9.91516 9.6651C9.40725 10.173 8.71838 10.4584 8.00008 10.4584V10.4584Z" fill="#452613"/>
</svg>
