<svg width="19" height="19" viewBox="0 0 19 19" fill="none" xmlns="http://www.w3.org/2000/svg">
<path d="M17.71 16.853L14.31 13.5311C15.407 12.1616 16.0022 10.4704 16 8.72946C16 7.17897 15.5308 5.66331 14.6517 4.37413C13.7727 3.08495 12.5233 2.08016 11.0614 1.48682C9.59964 0.893472 7.99111 0.738227 6.43927 1.04071C4.88742 1.34319 3.46196 2.08982 2.34314 3.18618C1.22433 4.28254 0.462402 5.67938 0.153721 7.20007C-0.15496 8.72076 0.00346624 10.297 0.608966 11.7295C1.21447 13.1619 2.23984 14.3863 3.55543 15.2477C4.87102 16.1091 6.41774 16.5688 7.99999 16.5688C9.77664 16.571 11.5024 15.9877 12.9 14.9128L16.29 18.2445C16.3829 18.3363 16.4935 18.4092 16.6154 18.459C16.7372 18.5087 16.868 18.5344 17 18.5344C17.132 18.5344 17.2627 18.5087 17.3845 18.459C17.5064 18.4092 17.617 18.3363 17.71 18.2445C17.8037 18.1534 17.8781 18.045 17.9289 17.9256C17.9796 17.8062 18.0058 17.6781 18.0058 17.5488C18.0058 17.4194 17.9796 17.2913 17.9289 17.1719C17.8781 17.0525 17.8037 16.9441 17.71 16.853ZM2 8.72946C2 7.56659 2.35189 6.42985 3.01118 5.46296C3.67047 4.49608 4.60754 3.74248 5.70389 3.29748C6.80024 2.85247 8.00664 2.73603 9.17053 2.9629C10.3344 3.18976 11.4035 3.74973 12.2426 4.572C13.0817 5.39427 13.6532 6.4419 13.8847 7.58242C14.1162 8.72293 13.9974 9.90511 13.5433 10.9795C13.0891 12.0538 12.3201 12.9721 11.3334 13.6181C10.3467 14.2642 9.18667 14.609 7.99999 14.609C6.40869 14.609 4.88257 13.9895 3.75735 12.8869C2.63214 11.7843 2 10.2888 2 8.72946Z" fill="#F4F4F4"/>
</svg>
