<svg width="21" height="23" viewBox="0 0 21 23" fill="none" xmlns="http://www.w3.org/2000/svg">
<path d="M5.23153 22.5H16.0649C16.3255 22.5001 16.5775 22.4061 16.7745 22.2354C16.9715 22.0646 17.1003 21.8286 17.1374 21.5705L19.1708 7.33337H20.3982V5.16671H18.901L17.0334 1.43246C16.9437 1.25238 16.8055 1.1009 16.6344 0.995065C16.4633 0.889229 16.266 0.833233 16.0649 0.833374H5.23153C4.82094 0.833374 4.44611 1.06521 4.26194 1.43246L2.39536 5.16671H0.898193V7.33337H2.12561L4.15903 21.5705C4.19604 21.8286 4.32487 22.0646 4.52187 22.2354C4.71887 22.4061 4.97084 22.5001 5.23153 22.5ZM16.5177 10.5834H4.77869L4.31394 7.33337H16.9814L16.5177 10.5834ZM6.17078 20.3334L5.70603 17.0834H15.5893L15.1245 20.3334H6.17078ZM5.90103 3.00004H15.3954L16.4787 5.16671H4.81769L5.90103 3.00004Z" fill="#452613"/>
</svg>
