<svg width="22" height="14" viewBox="0 0 22 14" fill="none" xmlns="http://www.w3.org/2000/svg">
<path fill-rule="evenodd" clip-rule="evenodd" d="M21.5 7C21.5 7.19891 21.421 7.38968 21.2803 7.53033C21.1397 7.67098 20.9489 7.75 20.75 7.75L3.0605 7.75L7.781 12.469C7.92183 12.6098 8.00095 12.8008 8.00095 13C8.00095 13.1992 7.92183 13.3902 7.781 13.531C7.64017 13.6718 7.44916 13.7509 7.25 13.7509C7.05084 13.7509 6.85983 13.6718 6.719 13.531L0.719 7.531C0.649156 7.46133 0.593742 7.37856 0.555932 7.28745C0.518122 7.19633 0.49866 7.09865 0.49866 7C0.49866 6.90135 0.518123 6.80367 0.555932 6.71255C0.593742 6.62143 0.649156 6.53867 0.719 6.469L6.719 0.468998C6.85983 0.328168 7.05084 0.249051 7.25 0.249051C7.44916 0.249051 7.64017 0.328168 7.781 0.468998C7.92183 0.609828 8.00095 0.800834 8.00095 0.999998C8.00095 1.19916 7.92183 1.39017 7.781 1.531L3.0605 6.25L20.75 6.25C20.9489 6.25 21.1397 6.32902 21.2803 6.46967C21.421 6.61032 21.5 6.80109 21.5 7V7Z" fill="#403121"/>
</svg>
