<svg width="19" height="23" viewBox="0 0 19 23" fill="none" xmlns="http://www.w3.org/2000/svg">
<path d="M16.0695 5.16671V3.00004H17.1528C17.7487 3.00004 18.2362 2.51254 18.2362 1.91671C18.2362 1.32087 17.7487 0.833374 17.1528 0.833374H3.0695C1.87783 0.833374 0.902832 1.80837 0.902832 3.00004V20.3334C0.902832 21.525 1.87783 22.5 3.0695 22.5H17.1528C17.7487 22.5 18.2362 22.0125 18.2362 21.4167C18.2362 20.8209 17.7487 20.3334 17.1528 20.3334H13.8703C14.5512 19.8343 15.105 19.1819 15.4871 18.4292C15.8691 17.6764 16.0686 16.8442 16.0695 16V12.75C16.0695 11.5584 15.0945 10.5834 13.9028 10.5834H7.40283C6.21117 10.5834 5.23617 11.5584 5.23617 12.75V16C5.23617 17.7767 6.11367 19.3475 7.43533 20.3334H3.0695V3.00004H5.23617V5.16671C5.23617 5.76254 5.72367 6.25004 6.3195 6.25004H14.9862C15.582 6.25004 16.0695 5.76254 16.0695 5.16671Z" fill="#452613"/>
</svg>
